<svg xmlns="http://www.w3.org/2000/svg" width="340.7" height="647.387" viewBox="0 0 340.7 647.387">
  <g id="Background_illustration_2" data-name="Background illustration 2" transform="translate(0.5)" style="isolation: isolate">
    <g id="Group_21919" data-name="Group 21919" transform="translate(20844.76 3889.298)" opacity="0.996" style="isolation: isolate">
      <path id="Path_8064" data-name="Path 8064" d="M0,52.418C28.952,52.418,51.794,28.949,51.794,0H0Z" transform="translate(-20648.193 -3691.6) rotate(90)" fill="#fea328"/>
      <path id="Path_6364" data-name="Path 6364" d="M245.179,0V353.028A122.589,122.589,0,0,1,122.59,475.618h0A122.589,122.589,0,0,1,0,353.028V0" transform="translate(-20844.76 -3889.298)" fill="none" stroke="#000" stroke-miterlimit="10" stroke-width="1"/>
      <path id="Path_6365" data-name="Path 6365" d="M209.43,0V353.028a104.715,104.715,0,1,1-209.43,0V0" transform="translate(-20826.885 -3889.298)" fill="none" stroke="#000" stroke-miterlimit="10" stroke-width="1"/>
      <path id="Path_6366" data-name="Path 6366" d="M173.68,0V353.028a86.84,86.84,0,1,1-173.68,0V0" transform="translate(-20809.01 -3889.298)" fill="none" stroke="#000" stroke-miterlimit="10" stroke-width="1"/>
      <path id="Path_6367" data-name="Path 6367" d="M137.931,0V353.028A68.965,68.965,0,1,1,0,353.028V0" transform="translate(-20791.135 -3889.298)" fill="none" stroke="#000" stroke-miterlimit="10" stroke-width="1"/>
      <path id="Path_6368" data-name="Path 6368" d="M102.181,0V353.028A51.09,51.09,0,1,1,0,353.028V0" transform="translate(-20773.26 -3889.298)" fill="none" stroke="#000" stroke-miterlimit="10" stroke-width="1"/>
    </g>
    <circle id="Ellipse_529" data-name="Ellipse 529" cx="57.715" cy="57.715" r="57.715" transform="translate(176.251 319.815) rotate(-45)" fill="none" stroke="#fff" stroke-miterlimit="10" stroke-width="1" opacity="0.996"/>
    <path id="Path_8058" data-name="Path 8058" d="M121.272,149.308a52.927,52.927,0,0,0,0,105.853Z" transform="translate(90.258 392.102)" fill="#2f509c" opacity="0.996"/>
    <ellipse id="Ellipse_528" data-name="Ellipse 528" cx="42.203" cy="42.203" rx="42.203" ry="42.203" transform="translate(164.178 493.789)" opacity="0.996" stroke="#fea328" stroke-linecap="round" stroke-linejoin="round" stroke-width="3.681" fill="none"/>
    <path id="Path_8059" data-name="Path 8059" d="M203.543,212.27a16.758,16.758,0,1,1-16.758-16.758A16.759,16.759,0,0,1,203.543,212.27Z" transform="translate(-28.168 217.353)" fill="#ffd668"/>
    <ellipse id="Ellipse_530" data-name="Ellipse 530" cx="8.814" cy="8.814" rx="8.814" ry="8.814" transform="translate(290.053 182.056)" fill="#fff" opacity="0.996"/>
    <ellipse id="Ellipse_534" data-name="Ellipse 534" cx="23.221" cy="23.221" rx="23.221" ry="23.221" transform="translate(256.359 343.857)" fill="#2f509c" opacity="0.996"/>
    <g id="Group_21918" data-name="Group 21918" transform="translate(21031.564 3828.298)" opacity="0.996" style="isolation: isolate">
      <rect id="Rectangle_1747" data-name="Rectangle 1747" width="2.957" height="2.957" transform="translate(-20704.014 -3509.134) rotate(90)"/>
      <rect id="Rectangle_1748" data-name="Rectangle 1748" width="2.957" height="2.957" transform="translate(-20721.889 -3509.134) rotate(90)"/>
      <rect id="Rectangle_1749" data-name="Rectangle 1749" width="2.957" height="2.957" transform="translate(-20739.764 -3509.134) rotate(90)"/>
      <rect id="Rectangle_1750" data-name="Rectangle 1750" width="2.957" height="2.957" transform="translate(-20704.014 -3492.95) rotate(90)"/>
      <rect id="Rectangle_1751" data-name="Rectangle 1751" width="2.957" height="2.957" transform="translate(-20721.889 -3492.95) rotate(90)"/>
      <rect id="Rectangle_1752" data-name="Rectangle 1752" width="2.957" height="2.957" transform="translate(-20739.764 -3492.95) rotate(90)"/>
      <rect id="Rectangle_1753" data-name="Rectangle 1753" width="2.957" height="2.957" transform="translate(-20704.014 -3476.766) rotate(90)"/>
      <rect id="Rectangle_1754" data-name="Rectangle 1754" width="2.957" height="2.957" transform="translate(-20721.889 -3476.766) rotate(90)"/>
      <rect id="Rectangle_1755" data-name="Rectangle 1755" width="2.957" height="2.957" transform="translate(-20739.764 -3476.766) rotate(90)"/>
      <rect id="Rectangle_1756" data-name="Rectangle 1756" width="2.957" height="2.957" transform="translate(-20704.014 -3460.583) rotate(90)"/>
      <rect id="Rectangle_1757" data-name="Rectangle 1757" width="2.957" height="2.957" transform="translate(-20721.889 -3460.583) rotate(90)"/>
      <rect id="Rectangle_1758" data-name="Rectangle 1758" width="2.957" height="2.957" transform="translate(-20739.764 -3460.583) rotate(90)"/>
      <rect id="Rectangle_1759" data-name="Rectangle 1759" width="2.957" height="2.957" transform="translate(-20704.014 -3444.399) rotate(90)"/>
      <rect id="Rectangle_1760" data-name="Rectangle 1760" width="2.957" height="2.957" transform="translate(-20721.889 -3444.399) rotate(90)"/>
      <rect id="Rectangle_1761" data-name="Rectangle 1761" width="2.957" height="2.957" transform="translate(-20739.764 -3444.399) rotate(90)"/>
      <rect id="Rectangle_1762" data-name="Rectangle 1762" width="2.957" height="2.957" transform="translate(-20704.014 -3428.215) rotate(90)"/>
      <rect id="Rectangle_1763" data-name="Rectangle 1763" width="2.957" height="2.957" transform="translate(-20721.889 -3428.215) rotate(90)"/>
      <rect id="Rectangle_1764" data-name="Rectangle 1764" width="2.957" height="2.957" transform="translate(-20739.764 -3428.215) rotate(90)"/>
      <rect id="Rectangle_1765" data-name="Rectangle 1765" width="2.957" height="2.957" transform="translate(-20704.014 -3412.031) rotate(90)"/>
      <rect id="Rectangle_1766" data-name="Rectangle 1766" width="2.957" height="2.957" transform="translate(-20721.889 -3412.031) rotate(90)"/>
      <rect id="Rectangle_1767" data-name="Rectangle 1767" width="2.957" height="2.957" transform="translate(-20739.764 -3412.031) rotate(90)"/>
      <rect id="Rectangle_1768" data-name="Rectangle 1768" width="2.957" height="2.957" transform="translate(-20704.014 -3395.848) rotate(90)"/>
      <rect id="Rectangle_1769" data-name="Rectangle 1769" width="2.957" height="2.957" transform="translate(-20721.889 -3395.848) rotate(90)"/>
      <rect id="Rectangle_1770" data-name="Rectangle 1770" width="2.957" height="2.957" transform="translate(-20739.764 -3395.848) rotate(90)"/>
      <rect id="Rectangle_1771" data-name="Rectangle 1771" width="2.957" height="2.957" transform="translate(-20704.014 -3379.664) rotate(90)"/>
      <rect id="Rectangle_1772" data-name="Rectangle 1772" width="2.957" height="2.957" transform="translate(-20721.889 -3379.664) rotate(90)"/>
      <rect id="Rectangle_1773" data-name="Rectangle 1773" width="2.957" height="2.957" transform="translate(-20739.764 -3379.664) rotate(90)"/>
      <rect id="Rectangle_1774" data-name="Rectangle 1774" width="2.957" height="2.957" transform="translate(-20704.014 -3363.48) rotate(90)"/>
      <rect id="Rectangle_1775" data-name="Rectangle 1775" width="2.957" height="2.957" transform="translate(-20721.889 -3363.48) rotate(90)"/>
      <rect id="Rectangle_1776" data-name="Rectangle 1776" width="2.957" height="2.957" transform="translate(-20739.764 -3363.48) rotate(90)"/>
      <rect id="Rectangle_1777" data-name="Rectangle 1777" width="2.957" height="2.957" transform="translate(-20704.014 -3347.297) rotate(90)"/>
      <rect id="Rectangle_1778" data-name="Rectangle 1778" width="2.957" height="2.957" transform="translate(-20721.889 -3347.297) rotate(90)"/>
      <rect id="Rectangle_1779" data-name="Rectangle 1779" width="2.957" height="2.957" transform="translate(-20739.764 -3347.297) rotate(90)"/>
    </g>
    <path id="Path_6361" data-name="Path 6361" d="M48.623,88.73A13.008,13.008,0,1,1,35.616,75.722,13.008,13.008,0,0,1,48.623,88.73Z" transform="translate(333.766 598.764) rotate(90)" fill="#fff" opacity="0.996"/>
  </g>
</svg>
